<?xml version="1.0" encoding="UTF-8"?>
<svg id="Layer_2" data-name="Layer 2" xmlns="http://www.w3.org/2000/svg" viewBox="0 0 469.25 461.65">
  <defs>
    <style>
      .cls-1 {
        fill: #fefefe;
      }
    </style>
  </defs>
  <g id="Layer_1-2" data-name="Layer 1">
    <path class="cls-1" d="m376.57,133.94l-23.7,3.67c-6.17.96-12.51,1.45-18.84,1.45-8.25,0-16.43-.83-24.32-2.47-20.42-4.22-34.51-12.82-42.74-19.3l-32.35-25.45-32.34,25.45c-8.23,6.48-22.32,15.08-42.74,19.3-7.89,1.64-16.07,2.47-24.32,2.47-6.33,0-12.67-.49-18.85-1.45l-23.69-3.67-66.44,50.57v104.14c0,4.88.27,9.73.82,14.56,4.64,41.31,28.89,80.23,68.14,108.54.95.68,1.9,1.35,2.87,2.03,48.12,33.59,102.03,43.93,129.88,47.11l6.67.76,6.67-.75c27.85-3.18,81.76-13.53,129.87-47.11.99-.69,1.95-1.38,2.9-2.06,43.82-31.59,68.95-76.46,68.95-123.08v-104.14l-66.44-50.57Zm36.44,154.71c0,40.39-21.72,79.2-59.59,106.5-.83.6-1.67,1.2-2.53,1.8-42.23,29.49-89.58,38.57-114.04,41.36l-2.23.25-2.22-.25c-24.46-2.79-71.81-11.87-114.05-41.36-.85-.59-1.69-1.19-2.52-1.79-33.34-24.04-54.16-57-58.66-92.1-.62-4.76-.93-9.58-.93-14.41v-94.69l46.25-35.2,7.9,1.23c8.14,1.26,16.49,1.9,24.83,1.9,10.91,0,21.74-1.1,32.19-3.27,26.99-5.58,45.59-16.93,56.43-25.46l10.78-8.49,10.78,8.49c10.85,8.53,29.44,19.87,56.44,25.46,10.45,2.17,21.28,3.27,32.19,3.27,8.33,0,16.69-.64,24.83-1.9l7.9-1.23,46.25,35.2v94.69Z"/>
    <rect class="cls-1" x="416.77" y="210.91" width="52.48" height="92.35" rx="26.24" ry="26.24"/>
    <rect class="cls-1" x="0" y="210.91" width="52.48" height="92.35" rx="26.24" ry="26.24"/>
    <circle class="cls-1" cx="153.04" cy="256.3" r="55.76"/>
    <circle class="cls-1" cx="234.61" cy="33.76" r="33.76"/>
    <circle class="cls-1" cx="316.21" cy="256.3" r="55.76"/>
    <path class="cls-1" d="m234.4,374.64c-12.24,0-24.42-3.05-36.07-9.16-2.26-1.19-3.04-4.06-1.74-6.26h0c1.23-2.08,3.87-2.78,6.01-1.66,20.8,10.92,42.79,10.9,64.06-.05,2.15-1.11,4.78-.37,5.99,1.72h0c1.28,2.21.48,5.07-1.8,6.24-11.89,6.12-24.21,9.18-36.46,9.18Z"/>
    <polygon class="cls-1" points="254.74 116.66 216.39 116.66 226.3 55.82 244.82 55.82 254.74 116.66"/>
  </g>
</svg>