<?xml version="1.0" encoding="UTF-8"?>
<svg id="Layer_2" data-name="Layer 2" xmlns="http://www.w3.org/2000/svg" viewBox="0 0 469.25 461.65">
  <defs>
    <linearGradient id="chatbotAltGradient" x1="0%" y1="0%" x2="100%" y2="100%">
      <stop offset="0%" stop-color="#2563EB"/>
      <stop offset="100%" stop-color="#06B6D4"/>
    </linearGradient>
  </defs>
  <g id="Layer_1-2" data-name="Layer 1">
    <path fill="url(#chatbotAltGradient)" d="m443.01,210.91h0v-26.4l-66.44-50.57-23.7,3.67c-6.17.96-12.51,1.45-18.84,1.45-8.25,0-16.43-.83-24.32-2.47-20.42-4.22-34.51-12.82-42.74-19.3l-13.91-10.95h0s-6.67-40.92-6.67-40.92c12.84-4.78,21.99-17.14,21.99-31.65,0-18.65-15.12-33.76-33.76-33.76s-33.76,15.12-33.76,33.76c0,15.17,10.01,28.01,23.78,32.26l-6.29,38.61-16.07,12.65c-8.23,6.48-22.32,15.08-42.74,19.3-7.89,1.64-16.07,2.47-24.32,2.47-6.33,0-12.67-.49-18.85-1.45l-23.69-3.67-66.44,50.57v26.4c-14.49,0-26.24,11.75-26.24,26.24v39.87c0,14.49,11.75,26.24,26.24,26.24h0c.27,0,.55-.01.82-.02,4.65,41.3,28.9,80.21,68.14,108.52.95.67,1.9,1.35,2.87,2.03,48.12,33.59,102.03,43.93,129.88,47.1l6.67.77,6.67-.76c27.85-3.18,81.76-13.52,129.87-47.1.99-.69,1.95-1.38,2.9-2.06,39.23-28.28,63.48-67.2,68.13-108.5.27,0,.55.02.82.02h0c14.49,0,26.24-11.75,26.24-26.24v-39.87c0-14.49-11.75-26.24-26.24-26.24Zm-126.8,101.16c-30.79,0-55.76-24.97-55.76-55.76s24.97-55.76,55.76-55.76,55.76,24.96,55.76,55.76-24.96,55.76-55.76,55.76Zm-218.93-55.76c0-30.8,24.96-55.76,55.76-55.76s55.76,24.96,55.76,55.76-24.96,55.76-55.76,55.76-55.76-24.97-55.76-55.76Zm99.32,102.92c.84-1.41,2.33-2.19,3.87-2.19.72,0,1.46.17,2.14.53,20.8,10.92,42.78,10.9,64.05-.05,2.15-1.11,4.79-.37,6,1.72.41.71.61,1.49.61,2.26,0,1.61-.87,3.18-2.41,3.97-11.89,6.12-24.21,9.18-36.46,9.18s-24.42-3.05-36.07-9.16c-2.26-1.19-3.03-4.06-1.73-6.26Z"/>
  </g>
</svg>